<?xml version="1.0" encoding="utf-8"?>
<svg viewBox="0 0 640 640" xmlns="http://www.w3.org/2000/svg">
  <g>
    <g>
      <g>
        <path d="M336 154C337.6 154 350.4 154 352 154C352 139.14 341.76 126.71 328 123.14C328 121.99 328 116.28 328 106L312 106L312 122L288 122C288 141.2 288 151.87 288 154C288 171.65 302.35 186 320 186C328.82 186 336 193.18 336 202C336 203.07 336 208.4 336 218C326.4 218 321.07 218 320 218C311.18 218 304 210.82 304 202C302.4 202 289.6 202 288 202C288 216.86 298.24 229.29 312 232.86C312 234.01 312 239.72 312 250L328 250L328 234L352 234C352 227.66 352 222.26 352 217.78C352 208.69 352 203.43 352 202C352 184.35 337.65 170 320 170C311.18 170 304 162.82 304 154C304 152.93 304 147.6 304 138L320 138C330.67 142.78 336 148.12 336 154Z" transform="matrix(1, 0, 0, 1, 0, 0)" opacity="1" fill-opacity="1" style="fill: rgb(113, 89, 193);"/>
        <g>
          <path d="M336 154C337.6 154 350.4 154 352 154C352 139.14 341.76 126.71 328 123.14C328 121.99 328 116.28 328 106L312 106L312 122L288 122C288 141.2 288 151.87 288 154C288 171.65 302.35 186 320 186C328.82 186 336 193.18 336 202C336 203.07 336 208.4 336 218C326.4 218 321.07 218 320 218C311.18 218 304 210.82 304 202C302.4 202 289.6 202 288 202C288 216.86 298.24 229.29 312 232.86C312 234.01 312 239.72 312 250L328 250L328 234L352 234C352 227.66 352 222.26 352 217.78C352 208.69 352 203.43 352 202C352 184.35 337.65 170 320 170C311.18 170 304 162.82 304 154C304 152.93 304 147.6 304 138L320 138C330.67 142.78 336 148.12 336 154Z" transform="matrix(1, 0, 0, 1, 0, 0)" opacity="1" fill-opacity="0" stroke="#000000" stroke-width="1" stroke-opacity="0" style="fill: rgb(113, 89, 193);"/>
        </g>
      </g>
      <g>
        <path d="M214.39 176C214.39 233.34 261.05 280 318.39 280C375.74 280 422.39 233.34 422.39 176C422.39 118.66 375.74 72 318.39 72C261.05 72 214.39 118.66 214.39 176ZM230.39 176C230.39 127.48 269.87 88 318.39 88C366.91 88 406.39 127.48 406.39 176C406.39 224.52 366.91 264 318.39 264C269.87 264 230.39 224.52 230.39 176Z" transform="matrix(1, 0, 0, 1, 0, 0)" opacity="1" fill-opacity="1" style="fill: rgb(113, 89, 193);"/>
        <g>
          <path d="M214.39 176C214.39 233.34 261.05 280 318.39 280C375.74 280 422.39 233.34 422.39 176C422.39 118.66 375.74 72 318.39 72C261.05 72 214.39 118.66 214.39 176ZM230.39 176C230.39 127.48 269.87 88 318.39 88C366.91 88 406.39 127.48 406.39 176C406.39 224.52 366.91 264 318.39 264C269.87 264 230.39 224.52 230.39 176Z" transform="matrix(1, 0, 0, 1, 0, 0)" opacity="1" fill-opacity="0" stroke="#000000" stroke-width="1" stroke-opacity="0" style="fill: rgb(113, 89, 193);"/>
        </g>
      </g>
      <g>
        <path d="M587.27 214.7C609.4 214.7 627.39 197 627.39 175.22C627.39 153.44 609.4 135.74 587.27 135.74C576.74 135.74 492.51 135.74 481.98 135.74C463.86 62.23 396.59 7.41 316.39 7.41C236.2 7.41 168.93 62.23 150.81 135.74C140.28 135.74 56.05 135.74 45.52 135.74C23.39 135.74 5.39 153.44 5.39 175.22C5.39 197 23.39 214.7 45.52 214.7C47.94 214.7 60.02 214.7 81.76 214.7L28.26 372.64L5.39 372.64C5.39 384.48 5.39 391.06 5.39 392.38C5.39 446.81 50.4 491.09 105.72 491.09C161.04 491.09 206.04 446.81 206.04 392.38C206.04 391.06 206.04 384.48 206.04 372.64L183.18 372.64L129.67 214.7C142.36 214.7 149.4 214.7 150.81 214.7C165.8 275.52 214.46 323.39 276.27 338.14C276.27 341.59 276.27 369.19 276.27 372.64C276.27 377.94 277.8 382.85 280.29 387.16C271.87 392.41 266.23 401.61 266.23 412.12C266.23 427.92 266.23 554.26 266.23 570.06C266.23 597.27 288.74 619.41 316.39 619.41C344.05 619.41 366.56 597.27 366.56 570.06C366.56 554.26 366.56 427.92 366.56 412.12C366.56 401.61 360.92 392.41 352.5 387.16C354.99 382.85 356.52 377.94 356.52 372.64C356.52 369.19 356.52 341.59 356.52 338.14C418.33 323.39 466.99 275.52 481.98 214.7C483.39 214.7 490.43 214.7 503.12 214.7L449.61 372.64L426.75 372.64C426.75 384.48 426.75 391.06 426.75 392.38C426.75 446.81 471.75 491.09 527.07 491.09C582.39 491.09 627.39 446.81 627.39 392.38C627.39 391.06 627.39 384.48 627.39 372.64L604.53 372.64L551.03 214.7C572.77 214.7 584.85 214.7 587.27 214.7ZM25.46 392.38C41.51 392.38 169.92 392.38 185.98 392.38C185.98 435.92 149.97 471.35 105.72 471.35C61.47 471.35 25.46 435.92 25.46 392.38ZM49.42 372.64L102.92 214.7L108.52 214.7L162.02 372.64L49.42 372.64ZM25.46 175.22C25.46 164.33 34.46 155.48 45.52 155.48C55.68 155.48 136.97 155.48 147.13 155.48C146.36 161.96 145.85 168.53 145.85 175.22C145.85 181.91 146.36 188.48 147.13 194.96C140.36 194.96 106.49 194.96 45.52 194.96C32.15 189.06 25.46 182.48 25.46 175.22ZM316.39 599.67C299.8 599.67 286.3 586.39 286.3 570.06C286.3 554.26 286.3 427.92 286.3 412.12C286.3 406.67 290.8 402.25 296.33 402.25C297 402.25 300.34 402.25 306.36 402.25L326.43 402.25C332.45 402.25 335.79 402.25 336.46 402.25C341.99 402.25 346.49 406.67 346.49 412.12C346.49 422.65 346.49 475.3 346.49 570.06C337.49 589.8 327.46 599.67 316.39 599.67ZM326.43 382.51C324.42 382.51 308.37 382.51 306.36 382.51C300.83 382.51 296.33 378.09 296.33 372.64C296.33 369.55 296.33 344.85 296.33 341.76C302.92 342.52 309.59 343.03 316.39 343.03C323.2 343.03 329.87 342.52 336.46 341.76C336.46 343.82 336.46 354.11 336.46 372.64C333.46 379.22 330.11 382.51 326.43 382.51ZM165.91 175.22C165.91 93.58 233.42 27.16 316.39 27.16C399.37 27.16 466.88 93.58 466.88 175.22C466.88 256.86 399.37 323.28 316.39 323.28C233.42 323.28 165.91 256.86 165.91 175.22ZM587.27 155.48C598.33 155.48 607.33 164.33 607.33 175.22C607.33 186.11 598.33 194.96 587.27 194.96C577.11 194.96 495.82 194.96 485.66 194.96C486.43 188.48 486.94 181.91 486.94 175.22C486.94 168.53 486.43 161.96 485.66 155.48C505.98 155.48 577.11 155.48 587.27 155.48ZM529.87 214.7L583.37 372.64L470.77 372.64L524.27 214.7L529.87 214.7ZM446.81 392.38C462.87 392.38 591.28 392.38 607.33 392.38C607.33 435.92 571.32 471.35 527.07 471.35C482.82 471.35 446.81 435.92 446.81 392.38Z" transform="matrix(1, 0, 0, 1, 0, 0)" opacity="1" fill-opacity="1" style="fill: rgb(113, 89, 193);"/>
        <g>
          <path d="M587.27 214.7C609.4 214.7 627.39 197 627.39 175.22C627.39 153.44 609.4 135.74 587.27 135.74C576.74 135.74 492.51 135.74 481.98 135.74C463.86 62.23 396.59 7.41 316.39 7.41C236.2 7.41 168.93 62.23 150.81 135.74C140.28 135.74 56.05 135.74 45.52 135.74C23.39 135.74 5.39 153.44 5.39 175.22C5.39 197 23.39 214.7 45.52 214.7C47.94 214.7 60.02 214.7 81.76 214.7L28.26 372.64L5.39 372.64C5.39 384.48 5.39 391.06 5.39 392.38C5.39 446.81 50.4 491.09 105.72 491.09C161.04 491.09 206.04 446.81 206.04 392.38C206.04 391.06 206.04 384.48 206.04 372.64L183.18 372.64L129.67 214.7C142.36 214.7 149.4 214.7 150.81 214.7C165.8 275.52 214.46 323.39 276.27 338.14C276.27 341.59 276.27 369.19 276.27 372.64C276.27 377.94 277.8 382.85 280.29 387.16C271.87 392.41 266.23 401.61 266.23 412.12C266.23 427.92 266.23 554.26 266.23 570.06C266.23 597.27 288.74 619.41 316.39 619.41C344.05 619.41 366.56 597.27 366.56 570.06C366.56 554.26 366.56 427.92 366.56 412.12C366.56 401.61 360.92 392.41 352.5 387.16C354.99 382.85 356.52 377.94 356.52 372.64C356.52 369.19 356.52 341.59 356.52 338.14C418.33 323.39 466.99 275.52 481.98 214.7C483.39 214.7 490.43 214.7 503.12 214.7L449.61 372.64L426.75 372.64C426.75 384.48 426.75 391.06 426.75 392.38C426.75 446.81 471.75 491.09 527.07 491.09C582.39 491.09 627.39 446.81 627.39 392.38C627.39 391.06 627.39 384.48 627.39 372.64L604.53 372.64L551.03 214.7C572.77 214.7 584.85 214.7 587.27 214.7ZM25.46 392.38C41.51 392.38 169.92 392.38 185.98 392.38C185.98 435.92 149.97 471.35 105.72 471.35C61.47 471.35 25.46 435.92 25.46 392.38ZM49.42 372.64L102.92 214.7L108.52 214.7L162.02 372.64L49.42 372.64ZM25.46 175.22C25.46 164.33 34.46 155.48 45.52 155.48C55.68 155.48 136.97 155.48 147.13 155.48C146.36 161.96 145.85 168.53 145.85 175.22C145.85 181.91 146.36 188.48 147.13 194.96C140.36 194.96 106.49 194.96 45.52 194.96C32.15 189.06 25.46 182.48 25.46 175.22ZM316.39 599.67C299.8 599.67 286.3 586.39 286.3 570.06C286.3 554.26 286.3 427.92 286.3 412.12C286.3 406.67 290.8 402.25 296.33 402.25C297 402.25 300.34 402.25 306.36 402.25L326.43 402.25C332.45 402.25 335.79 402.25 336.46 402.25C341.99 402.25 346.49 406.67 346.49 412.12C346.49 422.65 346.49 475.3 346.49 570.06C337.49 589.8 327.46 599.67 316.39 599.67ZM326.43 382.51C324.42 382.51 308.37 382.51 306.36 382.51C300.83 382.51 296.33 378.09 296.33 372.64C296.33 369.55 296.33 344.85 296.33 341.76C302.92 342.52 309.59 343.03 316.39 343.03C323.2 343.03 329.87 342.52 336.46 341.76C336.46 343.82 336.46 354.11 336.46 372.64C333.46 379.22 330.11 382.51 326.43 382.51ZM165.91 175.22C165.91 93.58 233.42 27.16 316.39 27.16C399.37 27.16 466.88 93.58 466.88 175.22C466.88 256.86 399.37 323.28 316.39 323.28C233.42 323.28 165.91 256.86 165.91 175.22ZM587.27 155.48C598.33 155.48 607.33 164.33 607.33 175.22C607.33 186.11 598.33 194.96 587.27 194.96C577.11 194.96 495.82 194.96 485.66 194.96C486.43 188.48 486.94 181.91 486.94 175.22C486.94 168.53 486.43 161.96 485.66 155.48C505.98 155.48 577.11 155.48 587.27 155.48ZM529.87 214.7L583.37 372.64L470.77 372.64L524.27 214.7L529.87 214.7ZM446.81 392.38C462.87 392.38 591.28 392.38 607.33 392.38C607.33 435.92 571.32 471.35 527.07 471.35C482.82 471.35 446.81 435.92 446.81 392.38Z" transform="matrix(1, 0, 0, 1, 0, 0)" opacity="1" fill-opacity="0" stroke="#000000" stroke-width="1" stroke-opacity="0" style="fill: rgb(113, 89, 193);"/>
        </g>
      </g>
    </g>
  </g>
</svg>